<?xml version="1.0" ?><svg fill="none" height="24" viewBox="0 0 24 24" width="24" xmlns="http://www.w3.org/2000/svg"><g id="Cart"><path clip-rule="evenodd" d="M1.25 3C1.25 1.48122 2.48122 0.25 4 0.25H14C15.5188 0.25 16.75 1.48122 16.75 3V11.5C16.75 11.9142 16.4142 12.25 16 12.25C15.5858 12.25 15.25 11.9142 15.25 11.5V3C15.25 2.30964 14.6904 1.75 14 1.75H4C3.30964 1.75 2.75 2.30964 2.75 3V21C2.75 21.6904 3.30964 22.25 4 22.25H12C12.4142 22.25 12.75 22.5858 12.75 23C12.75 23.4142 12.4142 23.75 12 23.75H4C2.48122 23.75 1.25 22.5188 1.25 21V3Z" fill="black" fill-rule="evenodd" id="Rectangle 31 (Stroke)"/><path clip-rule="evenodd" d="M4.36201 0.605702C4.49867 0.384589 4.74007 0.25 5 0.25H13C13.2599 0.25 13.5013 0.384589 13.638 0.605702C13.7746 0.826814 13.7871 1.10292 13.6708 1.33541L12.9472 2.78262C12.6508 3.3755 12.0448 3.75 11.382 3.75H6.61803C5.95518 3.75 5.34922 3.3755 5.05279 2.78262L4.32918 1.33541C4.21293 1.10292 4.22536 0.826814 4.36201 0.605702ZM6.21353 1.75L6.39443 2.1118C6.43678 2.1965 6.52334 2.25 6.61803 2.25H11.382C11.4767 2.25 11.5632 2.1965 11.6056 2.1118L11.7865 1.75H6.21353Z" fill="black" fill-rule="evenodd" id="Rectangle 32 (Stroke)"/><path clip-rule="evenodd" d="M6.25 20C6.25 19.5858 6.58579 19.25 7 19.25H11C11.4142 19.25 11.75 19.5858 11.75 20C11.75 20.4142 11.4142 20.75 11 20.75H7C6.58579 20.75 6.25 20.4142 6.25 20Z" fill="black" fill-rule="evenodd" id="Vector 44 (Stroke)"/><path clip-rule="evenodd" d="M12.25 15C12.25 14.5858 12.5858 14.25 13 14.25H15C15.3666 14.25 15.6795 14.5151 15.7398 14.8767L16.6353 20.25H21.3851L22.0851 16.75H18C17.5858 16.75 17.25 16.4142 17.25 16C17.25 15.5858 17.5858 15.25 18 15.25H23C23.2247 15.25 23.4376 15.3507 23.58 15.5245C23.7225 15.6983 23.7795 15.9268 23.7354 16.1471L22.7354 21.1471C22.6653 21.4977 22.3575 21.75 22 21.75H16C15.6334 21.75 15.3205 21.4849 15.2602 21.1233L14.3647 15.75H13C12.5858 15.75 12.25 15.4142 12.25 15Z" fill="black" fill-rule="evenodd" id="Vector 57 (Stroke)"/><path clip-rule="evenodd" d="M15.25 23C15.25 22.5858 15.5858 22.25 16 22.25H17C17.4142 22.25 17.75 22.5858 17.75 23C17.75 23.4142 17.4142 23.75 17 23.75H16C15.5858 23.75 15.25 23.4142 15.25 23Z" fill="black" fill-rule="evenodd" id="Vector 58 (Stroke)"/><path clip-rule="evenodd" d="M20.25 23C20.25 22.5858 20.5858 22.25 21 22.25H22C22.4142 22.25 22.75 22.5858 22.75 23C22.75 23.4142 22.4142 23.75 22 23.75H21C20.5858 23.75 20.25 23.4142 20.25 23Z" fill="black" fill-rule="evenodd" id="Vector 59 (Stroke)"/></g></svg>